<svg xmlns="http://www.w3.org/2000/svg" viewBox="0 0 240 60">
    <defs>
        <style>
            .icon { fill: #e33075; }
            .icon-stroke { stroke: #e33075; fill: none; stroke-width: 2.5; stroke-linecap: round; stroke-linejoin: round; }
            .title-bold { fill: #ffffff; font-family: -apple-system, BlinkMacSystemFont, "Segoe UI", Roboto, sans-serif; font-weight: 800; font-size: 19px; }
            .title-light { fill: #85b8eb; font-family: -apple-system, BlinkMacSystemFont, "Segoe UI", Roboto, sans-serif; font-weight: 400; font-size: 17px; }
        </style>
    </defs>
    <g transform="translate(15, 10)">
        <path class="icon-stroke" stroke-width="3" d="M22,2 H6 C3.8,2 2,3.8 2,6 V34 C2,36.2 3.8,38 6,38 H16"/>
        <path class="icon-stroke" d="M22,2 L32,12 V20"/>
        <path class="icon-stroke" d="M22,2 V12 H32"/>
        <line class="icon-stroke" x1="8" y1="12" x2="16" y2="12"/>
        <line class="icon-stroke" x1="8" y1="20" x2="22" y2="20"/>
        <line class="icon-stroke" x1="8" y1="28" x2="16" y2="28"/>
        <circle class="icon" cx="30" cy="30" r="12" />
        <path fill="#fff" d="M28,26 l4,4 l-4,4 l-4,-4 z M26,32 l1,2 l-2,1 z"/>
    </g>
    <text x="75" y="28" class="title-bold">KÊ KHAI</text>
    <text x="75" y="50" class="title-light">HỒ SƠ</text>
</svg>