<svg xmlns="http://www.w3.org/2000/svg" viewBox="5 0 50 60">
  <path fill="#ffffff" fill-rule="evenodd" d="M32.67,21.89a3.52,3.52,0,1,1-3.51,3.52,3.52,3.52,0,0,1,3.51-3.52m-12.52-.36H24c4.07,4.33,8.17,9,8.63,15.24.5-6.17,4.57-10.83,8.63-15.13h3.86c-1.29,1.55-2.57,3.09-4.07,4.82-2.41,2.79-4.78,6.1-5,10.8v5.68a4.1,4.1,0,0,0,3,1.21c3,.48,4.66-.89,6.32-.13,0,0,0,0,0,0-.07-1.82,1.81-2.78,2.54-5.78,1.26-2.37-1.23-6.37-3.48-8.31l-.31-.2c3-.08,7.62-1.75,8.07-4.47,1.25-2.82.35-4.74,1.51-6.14,0,0,0,0,0,0-1.78-.41-2.22-2.47-4.92-3.95-2-1.89-6.72-.38-9.12,1.36q.11-.33.24-.63c.72-2.88.51-7.35-1.78-8.57-2.27-2.09-4.37-1.85-5.33-3.4,0,0,0,0,0,0-1,1.55-3,1.31-5.32,3.4-2.4,1.29-2.52,6.12-1.67,9l.08.22c-2.4-1.74-7.11-3.24-9.12-1.36-2.71,1.48-3.15,3.54-4.92,3.95,0,0,0,0,0,0,1.16,1.4.26,3.32,1.51,6.14.45,2.72,5.1,4.39,8.07,4.47l-.1.07h.1c-2.38,1.77-5.23,5.81-4,8.3.6,3,2.43,4.07,2.28,5.89,0,0,0,0,0,0,1.69-.69,3.24.75,6.31.4A4.41,4.41,0,0,0,29.27,43V37.14c-.27-4.7-2.63-8-5-10.8C22.73,24.61,21.45,23.07,20.16,21.52ZM17.28,47.08l.08,0c2.93-1.21,5.71,1.26,10.31,0a9.15,9.15,0,0,0,1.6-.69v9.38c2.34,0,4.4.05,6.74.05V46.22a9.37,9.37,0,0,0,1.08.48c4.54,1.51,7.42-.84,10.3.5l.08,0s0,0,0-.08c-.13-3.17,3.15-4.94,3.5-9.71a7.28,7.28,0,0,0-2.85-6.39,7.3,7.3,0,0,0,6-3.33c2.63-4,1.11-7.39,3.14-9.83l.06-.06-.08,0c-3.1-.69-4-4.32-8.46-5.9a7.4,7.4,0,0,0-6.4.73A7.38,7.38,0,0,0,41.06,6.2C38.12,2.43,34.41,2.78,32.76.07l0-.07,0,.07C31,2.78,27.32,2.43,24.38,6.2a7.37,7.37,0,0,0-1.31,6.49,7.39,7.39,0,0,0-6.46-.77c-4.51,1.58-5.37,5.2-8.46,5.9l-.08,0,.06.06c2,2.43.52,5.83,3.14,9.83a7.33,7.33,0,0,0,5.85,3.33,7.34,7.34,0,0,0-2.89,6.1c.15,4.78,3.34,6.69,3.07,9.85C17.29,47,17.28,47.08,17.28,47.08Z"/>
</svg>
