<svg xmlns="http://www.w3.org/2000/svg" viewBox="0 0 153.12 46.51">
<defs>
<style>
.cls-1{fill:#fff;}
.cls-2{fill:#b48dff;}
.text-tichhop-bold {
  fill: #fff;
  font-family: -apple-system, BlinkMacSystemFont, "Segoe UI", Roboto, Helvetica, Arial, sans-serif;
  font-weight: 900;
  font-size: 20px;
  letter-spacing: -0.5px;
}
.text-tichhop-light {
  fill: #fff;
  font-family: -apple-system, BlinkMacSystemFont, "Segoe UI", Roboto, Helvetica, Arial, sans-serif;
  font-weight: 300;
  font-size: 19px;
  letter-spacing: -0.5px;
}
</style>
</defs>
<g id="Layer_2" data-name="Layer 2">
<g id="Layer_1-2" data-name="Layer 1">
<path class="cls-2" d="M38.11,46.51H36.84L36,46.4a10.79,10.79,0,0,1-9.14-8.83c-.07-.41-.11-.82-.17-1.22V35.09a1.74,1.74,0,0,0,0-.2,10.26,10.26,0,0,1,.6-2.83,10.79,10.79,0,0,1,20.75,5.69,10.8,10.8,0,0,1-8.74,8.6C38.93,46.41,38.52,46.45,38.11,46.51Zm-.62-2.11A8.67,8.67,0,1,0,28.8,35.7,8.71,8.71,0,0,0,37.49,44.39Z"/>
<path class="cls-2" d="M36.75,28.39c0,.22,0,.42,0,.62A.63.63,0,1,0,38,29c0-.21,0-.42,0-.63A7.34,7.34,0,0,1,44.81,35h-.75a.64.64,0,0,0-.63.63.63.63,0,0,0,.63.64h.78a7.34,7.34,0,0,1-6.71,6.83c0-.25,0-.49,0-.73a.64.64,0,1,0-1.27,0c0,.24,0,.49,0,.73a7.36,7.36,0,0,1-6.72-6.74c.25,0,.5,0,.75,0a.57.57,0,0,0,.52-.38.6.6,0,0,0-.09-.65.64.64,0,0,0-.52-.24h-.63A7.33,7.33,0,0,1,36.75,28.39Zm.7,6.45a2.57,2.57,0,0,0-.16-.21l-3-3a1.52,1.52,0,0,0-.19-.17.61.61,0,0,0-.67-.05.54.54,0,0,0-.33.58,1,1,0,0,0,.26.5c1.17,1.19,2.36,2.37,3.54,3.55a.66.66,0,0,0,1.08,0l2-2a1.34,1.34,0,0,0,.14-.16.63.63,0,0,0-.38-1,.66.66,0,0,0-.64.22Z"/>
<path class="cls-2" d="M35.83,0A1.79,1.79,0,0,1,37,1.94c0,2.72,0,5.43,0,8.15,0,1.31-.55,1.86-1.87,1.86-.79,0-1.58,0-2.37,0a1.49,1.49,0,0,1-1.6-1.55c0-3,0-5.9,0-8.85A1.6,1.6,0,0,1,32.41,0Z"/>
<path class="cls-2" d="M11.43,0a1.77,1.77,0,0,1,1.23,1.93c0,2.73,0,5.46,0,8.19,0,1.26-.56,1.82-1.81,1.83H8.61a1.57,1.57,0,0,1-1.79-1.8q0-3.2,0-6.4c0-.6,0-1.2,0-1.8A1.75,1.75,0,0,1,8,0Z"/>
<path class="cls-2" d="M22,23.77c.56,0,1.11,0,1.67,0a1,1,0,0,1,1.12,1.08q0,1.71,0,3.42a1,1,0,0,1-1,1.07q-1.75.06-3.51,0a1,1,0,0,1-1.06-1.14q0-1.64,0-3.29a1,1,0,0,1,1.15-1.15Z"/>
<path class="cls-2" d="M25.33,40.62H7.21c-1.43,0-2.08-.66-2.08-2.09q0-7.87,0-15.75c0-1.43.66-2.08,2.1-2.08H36.66a1.79,1.79,0,0,1,2.06,2,13.28,13.28,0,0,1,1.9.32,13,13,0,0,1,3.3,1.31q0-7.5,0-15c0-.13,0-.26,0-.39A4,4,0,0,0,40,5v.51c0,1.58,0,3.16,0,4.74a4.46,4.46,0,0,1-4.5,4.6c-.91,0-1.81,0-2.72,0a4.48,4.48,0,0,1-4.51-4.64c0-1.58,0-3.16,0-4.74V5H15.64c0,1.74,0,3.45,0,5.16A4.49,4.49,0,0,1,11,14.87H8.54A4.47,4.47,0,0,1,3.9,10.18q0-2.35,0-4.69V5a4.08,4.08,0,0,0-2.32.83A4.18,4.18,0,0,0,0,9.35Q0,19.65,0,30c0,3.55,0,7.11,0,10.66a4.23,4.23,0,0,0,.81,2.67,4.07,4.07,0,0,0,3.42,1.63H28.18A12.77,12.77,0,0,1,25.33,40.62Z"/>
<path class="cls-2" d="M23.59,32.65c-1.1,0-2.19,0-3.29,0a1.06,1.06,0,0,0-1.14,1.16q0,1.64,0,3.29a1.05,1.05,0,0,0,1.15,1.15c.54,0,1.08,0,1.62,0h1.62a1.16,1.16,0,0,0,1-.43c0-.28-.08-.56-.11-.84l-.05-.42V34.91l0-.11,0-.11v0a12.35,12.35,0,0,1,.2-1.49A1.07,1.07,0,0,0,23.59,32.65Z"/>
<path class="cls-2" d="M24.43,34.7l0,.11,0,.11v1.66l.05.42c0,.27.07.55.11.84a1.31,1.31,0,0,0,.2-.75q0-1.62,0-3.24a1.42,1.42,0,0,0-.14-.63,12.35,12.35,0,0,0-.2,1.49Z"/>
<path class="cls-2" d="M13.09,23.77h1.62a1,1,0,0,1,1.15,1.09q0,1.71,0,3.42a1,1,0,0,1-1.08,1.07q-1.71,0-3.42,0a1,1,0,0,1-1.08-1.16q0-1.64,0-3.29a1,1,0,0,1,1.14-1.14Z"/>
<path class="cls-2" d="M13,38.25c-.54,0-1.08,0-1.62,0a1,1,0,0,1-1.12-1.12q0-1.67,0-3.33a1,1,0,0,1,1.1-1.14q1.69,0,3.38,0a1,1,0,0,1,1.1,1.06q0,1.73,0,3.46a1,1,0,0,1-1.12,1.08H13Z"/>
<text x="56" y="19" class="text-tichhop-bold">TÍCH HỢP</text>
<text x="56" y="42" class="text-tichhop-light">ĐIỆN TỬ</text>
</g></g></svg>
