<svg xmlns="http://www.w3.org/2000/svg" viewBox="-400 -400 800 800" width="100%" height="100%">
  <defs>
    <radialGradient id="glow" cx="50%" cy="50%" r="50%">
      <stop offset="0%" stop-color="rgba(255,255,255,0.15)"/>
      <stop offset="100%" stop-color="transparent"/>
    </radialGradient>
  </defs>
  <!-- Base background (transparent) -->
  <rect x="-400" y="-400" width="800" height="800" fill="url(#glow)" />
  <g stroke="rgba(255,255,255,0.15)" fill="none" stroke-width="1.5">
    <!-- Central circles -->
    <circle r="40" stroke-width="2" />
    <circle r="120" stroke-width="3" />
    <circle r="130" stroke-width="1" />
    <circle r="190" stroke-width="2" />
    <circle r="200" stroke-width="4" />
    <circle r="280" stroke-width="1" stroke-dasharray="6 6" />
    <circle r="300" stroke-width="3" />
    <circle r="380" stroke-width="2" />
    
    <!-- 14-point Star -->
    <g fill="rgba(255,255,255,0.05)"><polygon points="0,-120 8.900837358252575,-38.99711648727295 52.066048694106975,-108.1162641482903 24.93959207434934,-31.273259298721193 93.81977789616357,-74.81877622304803 36.03875471609677,-17.355349564702326 116.99134946181883,-26.702512074757735 40,-2.4492935982947065e-15 116.99134946181883,26.70251207475772 36.03875471609677,17.355349564702323 93.81977789616359,74.81877622304802 24.939592074349356,31.27325929872118 52.06604869410699,108.11626414829028 8.900837358252563,38.99711648727295 1.469576158976824e-14,120 -8.900837358252554,38.99711648727295 -52.06604869410696,108.1162641482903 -24.939592074349353,31.273259298721182 -93.81977789616356,74.81877622304805 -36.03875471609676,17.35534956470233 -116.99134946181883,26.70251207475775 -40,7.347880794884118e-15 -116.99134946181886,-26.7025120747576 -36.03875471609677,-17.35534956470232 -93.81977789616359,-74.818776223048 -24.93959207434935,-31.273259298721186 -52.066048694106904,-108.11626414829033 -8.900837358252586,-38.99711648727294" /></g>
<g><g transform="rotate(0)">
    <path d="M -15 -130 L 0 -190 L 15 -130 Z" fill="rgba(255,255,255,0.08)" stroke-width="1"/>
    <circle cx="0" cy="-240" r="10" />
    <circle cx="0" cy="-240" r="4" fill="rgba(255,255,255,0.15)" />
    <path d="M 0 -300 L 0 -380" stroke-dasharray="4 4"/>
  </g><g transform="rotate(25.714285714285715)">
    <path d="M -15 -130 L 0 -190 L 15 -130 Z" fill="rgba(255,255,255,0.08)" stroke-width="1"/>
    <circle cx="0" cy="-240" r="10" />
    <circle cx="0" cy="-240" r="4" fill="rgba(255,255,255,0.15)" />
    <path d="M 0 -300 L 0 -380" stroke-dasharray="4 4"/>
  </g><g transform="rotate(51.42857142857143)">
    <path d="M -15 -130 L 0 -190 L 15 -130 Z" fill="rgba(255,255,255,0.08)" stroke-width="1"/>
    <circle cx="0" cy="-240" r="10" />
    <circle cx="0" cy="-240" r="4" fill="rgba(255,255,255,0.15)" />
    <path d="M 0 -300 L 0 -380" stroke-dasharray="4 4"/>
  </g><g transform="rotate(77.14285714285714)">
    <path d="M -15 -130 L 0 -190 L 15 -130 Z" fill="rgba(255,255,255,0.08)" stroke-width="1"/>
    <circle cx="0" cy="-240" r="10" />
    <circle cx="0" cy="-240" r="4" fill="rgba(255,255,255,0.15)" />
    <path d="M 0 -300 L 0 -380" stroke-dasharray="4 4"/>
  </g><g transform="rotate(102.85714285714286)">
    <path d="M -15 -130 L 0 -190 L 15 -130 Z" fill="rgba(255,255,255,0.08)" stroke-width="1"/>
    <circle cx="0" cy="-240" r="10" />
    <circle cx="0" cy="-240" r="4" fill="rgba(255,255,255,0.15)" />
    <path d="M 0 -300 L 0 -380" stroke-dasharray="4 4"/>
  </g><g transform="rotate(128.57142857142858)">
    <path d="M -15 -130 L 0 -190 L 15 -130 Z" fill="rgba(255,255,255,0.08)" stroke-width="1"/>
    <circle cx="0" cy="-240" r="10" />
    <circle cx="0" cy="-240" r="4" fill="rgba(255,255,255,0.15)" />
    <path d="M 0 -300 L 0 -380" stroke-dasharray="4 4"/>
  </g><g transform="rotate(154.28571428571428)">
    <path d="M -15 -130 L 0 -190 L 15 -130 Z" fill="rgba(255,255,255,0.08)" stroke-width="1"/>
    <circle cx="0" cy="-240" r="10" />
    <circle cx="0" cy="-240" r="4" fill="rgba(255,255,255,0.15)" />
    <path d="M 0 -300 L 0 -380" stroke-dasharray="4 4"/>
  </g><g transform="rotate(180)">
    <path d="M -15 -130 L 0 -190 L 15 -130 Z" fill="rgba(255,255,255,0.08)" stroke-width="1"/>
    <circle cx="0" cy="-240" r="10" />
    <circle cx="0" cy="-240" r="4" fill="rgba(255,255,255,0.15)" />
    <path d="M 0 -300 L 0 -380" stroke-dasharray="4 4"/>
  </g><g transform="rotate(205.71428571428572)">
    <path d="M -15 -130 L 0 -190 L 15 -130 Z" fill="rgba(255,255,255,0.08)" stroke-width="1"/>
    <circle cx="0" cy="-240" r="10" />
    <circle cx="0" cy="-240" r="4" fill="rgba(255,255,255,0.15)" />
    <path d="M 0 -300 L 0 -380" stroke-dasharray="4 4"/>
  </g><g transform="rotate(231.42857142857142)">
    <path d="M -15 -130 L 0 -190 L 15 -130 Z" fill="rgba(255,255,255,0.08)" stroke-width="1"/>
    <circle cx="0" cy="-240" r="10" />
    <circle cx="0" cy="-240" r="4" fill="rgba(255,255,255,0.15)" />
    <path d="M 0 -300 L 0 -380" stroke-dasharray="4 4"/>
  </g><g transform="rotate(257.14285714285717)">
    <path d="M -15 -130 L 0 -190 L 15 -130 Z" fill="rgba(255,255,255,0.08)" stroke-width="1"/>
    <circle cx="0" cy="-240" r="10" />
    <circle cx="0" cy="-240" r="4" fill="rgba(255,255,255,0.15)" />
    <path d="M 0 -300 L 0 -380" stroke-dasharray="4 4"/>
  </g><g transform="rotate(282.85714285714283)">
    <path d="M -15 -130 L 0 -190 L 15 -130 Z" fill="rgba(255,255,255,0.08)" stroke-width="1"/>
    <circle cx="0" cy="-240" r="10" />
    <circle cx="0" cy="-240" r="4" fill="rgba(255,255,255,0.15)" />
    <path d="M 0 -300 L 0 -380" stroke-dasharray="4 4"/>
  </g><g transform="rotate(308.57142857142856)">
    <path d="M -15 -130 L 0 -190 L 15 -130 Z" fill="rgba(255,255,255,0.08)" stroke-width="1"/>
    <circle cx="0" cy="-240" r="10" />
    <circle cx="0" cy="-240" r="4" fill="rgba(255,255,255,0.15)" />
    <path d="M 0 -300 L 0 -380" stroke-dasharray="4 4"/>
  </g><g transform="rotate(334.2857142857143)">
    <path d="M -15 -130 L 0 -190 L 15 -130 Z" fill="rgba(255,255,255,0.08)" stroke-width="1"/>
    <circle cx="0" cy="-240" r="10" />
    <circle cx="0" cy="-240" r="4" fill="rgba(255,255,255,0.15)" />
    <path d="M 0 -300 L 0 -380" stroke-dasharray="4 4"/>
  </g></g></g></svg>